<?xml version="1.0" encoding="utf-8"?>
<svg fill="white" version="1.1" xmlns="http://www.w3.org/2000/svg" x="0px" y="0px"
	 viewBox="0 0 540 190.9" xml:space="preserve">
	<path d="M84,8.2h44c0,5.3,0,10.7,0,16c9,0.1,18.1-0.6,27,1.3c22,4.2,41.5,20,49.8,40.8c-0.3-19.4,0-38.7-0.1-58.1h43.7
		c0,21.5,0,42.9,0,64.3c18.7-21.4,37.2-42.9,56-64.3H392c0,20.2,0,40.5,0,60.7c7.5-2.2,15.2-3.9,23-3.7c14.5,0.3,28.6,4.9,42,10.1
		c0-22.4,0-44.7,0-67.1h43c0,26.2,0,52.4,0,78.6c12.4-2,23.7-8,34-15v43.6c-13.2,6.7-26.1,11.6-41.2,9.7c-3.4-0.4-6.2-0.8-10.7-1.8
		c4.3,2.7,14.8,9,17.9,10.9c0,14.8,0,31.2,0,45.9h-43c0-21.1,0-42.2,0-63.2c-7-2.5-13.9-5.3-20.9-7.8c-6.8-2.5-13.6-5.3-21-5.8
		c-7.9-0.7-15.9,1.2-23.1,4.6c0,24.1,0,48.1,0,72.2h-91.4c-15.8-20.1-31.5-40.3-47.4-60.3c-1.1-1-2.1-3.1-3.9-2.2
		c-0.9,1.6-1,3.6-1,5.4c0,19,0,38,0,57.1h-43.7c0.1-20.7-0.2-41.4,0.1-62.1c-8.2,20.5-27.2,36.2-48.8,40.6
		c-9.2,2.1-18.6,1.3-27.9,1.5c0,6.7,0,13.3,0,20H84c0-6.7,0-13.3,0-20c-9.3-0.1-18.6,0.6-27.8-1.4c-18.8-3.8-35.6-16-45.1-32.6
		c-5.5-9.2-8.4-19.9-9.1-30.7v-6.1C2.7,76,7.2,62.9,15.1,52.2c10.2-14,25.8-23.8,42.8-26.8c8.6-1.6,17.4-1,26.1-1.1
		C84,18.9,84,13.5,84,8.2 M285,92c21.3,26.6,42.7,53.1,64,79.7c0-52.1,0-104.3,0-156.4C327.7,40.9,306.3,66.4,285,92 M59.8,65
		c-10.4,3.9-18.1,14.1-18.7,25.2c-1,11.7,6,23.4,16.6,28.3c8.2,4.1,17.5,2.5,26.3,2.8c0-19.4,0-38.8,0-58.3
		C75.9,63.4,67.5,62,59.8,65 M110.6,63c1.8,0.9,16,7.9,17.3,8.6c0.1,15.9,0,33.8,0,49.7c8.5-0.3,17.5,1.2,25.6-2.5
		c11-4.7,18.4-16.7,17.3-28.7c-0.7-14-12.9-26.2-26.8-27C128.9,63,125.8,63.2,110.6,63z"/>
</svg>
